<svg xmlns="http://www.w3.org/2000/svg" width="24" height="24" viewBox="0 0 24 24">
  <path fill="#E0E0E0" fill-rule="evenodd" d="M3.11154795,8.93191764 C2.60419178,8.6137699 2.12531507,8.17622958 1.67521918,7.61943616 C1.22512329,7.06264275 1,6.54546089 1,6.06816953 C1,5.47734365 1.16982192,4.98484928 1.50946575,4.59082588 C1.84910959,4.19694196 2.3340137,4 2.96417808,4 L21.0356712,4 C21.5674384,4 22.0279315,4.17797305 22.4166986,4.53405862 C22.8054658,4.89014418 23,5.31820005 23,5.8182262 C23,6.41672333 22.799589,6.98871977 22.3983151,7.53393657 C21.9971918,8.07943233 21.4981233,8.54542602 20.9006575,8.93163868 C17.8233699,10.9090085 15.9080137,12.1400352 15.1551918,12.6248583 C15.0733699,12.6779992 14.8993288,12.7933469 14.6333699,12.9714595 C14.367411,13.149572 14.1465068,13.293652 13.9705068,13.4034207 C13.7945068,13.5131893 13.5817397,13.6362083 13.3322055,13.7726171 C13.0826712,13.908747 12.8471507,14.0112628 12.6262466,14.0791882 C12.4051918,14.1475321 12.2005616,14.1814251 12.0123562,14.1814251 L12,14.1814251 L11.9876438,14.1814251 C11.7994384,14.1814251 11.5948082,14.1475321 11.3737534,14.0791882 C11.1528493,14.0112628 10.9174795,13.9088864 10.6677945,13.7726171 C10.4181096,13.6363478 10.2053425,13.5131893 10.0293425,13.4034207 C9.85349315,13.293652 9.63243836,13.149572 9.36647945,12.9714595 C9.10052055,12.7934864 8.92663014,12.6779992 8.84480822,12.6248583 C8.0999726,12.1401747 7.02784932,11.4489252 5.62828767,10.5512492 C4.22872603,9.65357323 3.38986301,9.11365657 3.11154795,8.93191764 Z M21.7722192,10.1477413 C22.2388904,9.8523284 22.648,9.52260404 23,9.15912617 L23,18.1816343 C23,18.6818 22.8078767,19.1095769 22.4230274,19.4658019 C22.0383288,19.822027 21.5758767,20 21.0358219,20 L2.96432877,20 C2.42412329,20 1.96167123,19.822027 1.5769726,19.4658019 C1.19227397,19.1097163 1,18.6818 1,18.1816343 L1,9.15912617 C1.36013699,9.53027529 1.77346575,9.85999965 2.2399863,10.1477413 C5.20275342,12.0112977 7.23654795,13.3182 8.34152055,14.0681695 C8.8080411,14.3863173 9.18656164,14.6345869 9.47708219,14.8124205 C9.76760274,14.990533 10.154411,15.1722719 10.6372055,15.3579162 C11.12,15.5435605 11.5702466,15.6363129 11.9876438,15.6363129 L12,15.6363129 L12.0125068,15.6363129 C12.4299041,15.6363129 12.88,15.5435605 13.3627945,15.3579162 C13.8457397,15.1722719 14.2323973,14.990533 14.5229178,14.8124205 C14.813589,14.6345869 15.1921096,14.3863173 15.6586301,14.0681695 C17.0497534,13.1363216 19.0879178,11.8294193 21.7722192,10.1477413 Z"/>
</svg>
