<svg xmlns="http://www.w3.org/2000/svg" width="16" height="16" viewBox="0 0 16 16">
  <g fill="#FFFFFF" fill-rule="evenodd">
    <path fill-rule="nonzero" d="M2.31695584,8.3477488 C2.75295584,7.9017488 3.35995584,7.8667488 3.89295584,8.3477488 L7.80095584,12.0947488 L11.7089558,8.3477488 C12.2419558,7.8667488 12.8499558,7.9017488 13.2829558,8.3477488 C13.7189558,8.7927488 13.6909558,9.5447488 13.2829558,9.9627488 C12.8769558,10.3807488 8.58795584,14.4647488 8.58795584,14.4647488 C8.37095584,14.6877488 8.08595584,14.7997488 7.80095584,14.7997488 C7.51595584,14.7997488 7.23095584,14.6877488 7.01195584,14.4647488 C7.01195584,14.4647488 2.72495584,10.3807488 2.31695584,9.9627488 C1.90795584,9.5447488 1.88095584,8.7927488 2.31695584,8.3477488 Z"/>
    <rect width="2" height="12" x="7" y="1" rx="1"/>
  </g>
</svg>
