<svg xmlns="http://www.w3.org/2000/svg" width="162" height="162" viewBox="0 0 162 162">
  <g fill="none" fill-rule="evenodd" transform="translate(1 1)">
    <circle cx="80" cy="80" r="80" fill="#FFFFFF" stroke="#979797"/>
    <g transform="translate(38 29)">
      <polygon fill="#3B4045" points="16 74 32 83 32 86 16 77"/>
      <path fill="#3B4045" d="M57.6777769,15.4742185 L80.2382235,28.4994984 C82.6301665,29.8804873 84.5692194,33.2347902 84.5692194,36.0010033 L84.5692194,73.9989967 C84.5692194,76.7609746 82.6338343,80.1173951 80.2382235,81.5005016 L47.3309959,100.499498 C44.9390529,101.880487 41.0646149,101.882605 38.6690041,100.499498 L5.76177652,81.5005016 C3.36983353,80.1195127 1.43078062,76.7652098 1.43078062,73.9989967 L1.43078062,36.0010033 C1.43078062,33.2390254 3.36616573,29.8826049 5.76177652,28.4994984 L37.0217595,10.4515388 L37,10.450321 L41.9868339,7.5762319 C42.4635614,7.30147699 43.2341444,6.8497538 43.7027469,6.57012038 C43.7027469,6.57012038 51.4479175,1.95791558 53.1997996,0.810723674 C57.1166393,-1.75415599 61.729432,2.19430135 59.5988117,6.68130983 C57.5577851,10.9796374 55.2638352,13.2392165 57.6777769,15.4742185 Z M8.26177652,32.8296254 C7.41471677,33.3186755 6.43078062,35.023568 6.43078062,36.0010033 L6.43078062,73.9989967 C6.43078062,74.977097 7.41529268,76.681657 8.26177652,77.1703746 L41.1690041,96.1693713 C42.0160638,96.6584215 43.9845121,96.658089 44.8309959,96.1693713 L77.7382235,77.1703746 C78.5852832,76.6813245 79.5692194,74.976432 79.5692194,73.9989967 L79.5692194,36.0010033 C79.5692194,35.022903 78.5847073,33.318343 77.7382235,32.8296254 L44.8309959,13.8306287 C43.9839362,13.3415785 42.0154879,13.341911 41.1690041,13.8306287 L8.26177652,32.8296254 Z"/>
      <g transform="translate(0 39)">
        <polygon fill="#3B4045" points=".578 1.453 2.031 .625 4.672 3.969 .578 2.969"/>
        <polygon fill="#3B4045" points="49.203 29.609 57.125 25.031 56.063 29.313 49.766 32.859"/>
        <path fill="#3B4045" d="M46.5679795,27.3224592 C45.4067264,26.3914449 43.5136006,24.8939916 37.0090671,21.140521 C33.4868903,19.1080329 30.1159762,17.2647842 28.2883736,16.4296135 C26.7408751,15.7224438 25.2567649,15.3175648 24,14.5936296 C24,16.7272137 24,16.2965685 24,17.7213737 C24.7687302,18.164973 24.848413,19.3114889 24.848413,19.3114889 C24.848413,19.3114889 25.3648835,25.0083973 27.2461196,28.9192632 C28.2685831,31.0448432 29.275715,32.5277323 30.7849473,33.9015107 C34.034715,36.859611 41.2462845,40.473572 42.3612097,40.8698626 C44.6087203,41.6687209 46.4526687,41.4053423 47.4194148,39.4983418 C47.9318019,38.4876086 48.1576443,37.220021 48.4083933,34.9356412 C48.5344291,33.7874261 48.2191114,33.4120611 49.0963137,32.8979408 C49.4606364,32.8351878 50,33.1079871 50,32.3319856 C50,31.9408733 49.9715181,31.1780166 49.9715181,30.6787308 C49.9715181,30.179445 49.7188691,29.7000078 49.2580357,29.4340818 C48.224439,28.8376402 47.31794,27.9237269 46.5679795,27.3224592 Z"/>
        <path fill="#FFFFFF" d="M42.5721604,26.2868253 C38.2950237,23.8186842 33.3160477,20.8037414 30.3613043,19.2404954 C29.1779306,18.6144159 27.3496749,18.1352269 27.2056507,20.1794184 C26.9887578,23.2578634 27.364043,26.4523048 29.3424096,29.7290671 C30.0306894,30.8690627 31.4760563,33.0704301 34.1351591,34.8002464 C37.3639641,36.900669 38.0204827,37.2580713 40.1491479,38.2706459 C41.7094847,39.0128751 43.8078093,39.3362428 45.0518294,38.4559011 C46.1489934,37.6794833 46.2210226,34.7264142 46.2210226,32.296797 C46.2210226,30.5009838 45.8172554,28.1594221 42.5721604,26.2868253 Z"/>
        <path fill="#3B4045" d="M3.38501877,2.41579823 C4.44577879,2.7663757 6.17507639,3.35822959 12.1167176,6.78334632 C15.3340906,8.6380322 18.413291,10.5150197 20.0827357,11.6968431 C21.4963161,12.6975365 22.8519936,13.9305635 24,14.5936296 C24,16.7272137 24,16.2965685 24,17.7213737 C23.2977946,17.3165806 23.2250074,18.3751564 23.2250074,18.3751564 C23.2250074,18.3751564 22.7532314,23.5020732 21.0347946,25.3367537 C20.1008135,26.333914 19.1808373,26.7053039 17.8022116,26.4134508 C14.8336738,25.7850155 8.24618245,21.4400842 7.22774115,20.6059118 C5.17472668,18.9243538 3.49035076,16.6259416 2.60726535,13.6520127 C2.13921945,12.0757946 1.93292112,10.5589609 1.7038716,7.99784753 C1.5887427,6.71053572 1.87677328,6.68316421 1.07548277,5.20093864 C0.742687971,4.73610885 0.25000006,4.41365117 0.25000006,3.63764963 C0.25000006,3.24653737 0.276017201,2.51511409 0.276017201,2.01582832 C0.276017201,1.51654255 0.506802344,1.31593594 0.927755944,1.55859872 C1.87190676,2.10286363 2.69995868,2.18938826 3.38501877,2.41579823 Z"/>
        <path fill="#FFFFFF" d="M7.03504585,5.79006341 C10.9420457,8.04229138 15.4901488,10.5222875 18.1891932,12.2199799 C19.2701596,12.8999051 20.9402008,14.4384308 21.0717614,16.6415716 C21.2698847,19.9593857 20.9270762,22.7396518 19.1199143,23.8330326 C18.4911972,24.2134232 17.1709101,24.8196427 14.741922,23.614798 C11.7925328,22.1518199 11.1928283,21.7846697 9.24837458,20.4479892 C7.82306691,19.4681865 5.90632807,17.4757837 4.7699636,15.2225063 C3.76774645,13.2352273 3.7019506,10.2026648 3.7019506,7.77304753 C3.7019506,5.97723433 4.07077633,4.08128147 7.03504585,5.79006341 Z"/>
      </g>
      <g transform="translate(21 18)">
        <path fill="#3B4045" d="M46.9900017,43.6610343 L46.9900017,27.5370376 C46.9900017,24.7708245 45.0511478,21.4165216 42.6594503,20.0355327 L9.75560052,1.03653595 C8.79318519,0.480828156 7.59206867,0.14873579 6.34430069,0.0398468092 L0.1875,5.0625 L0.237662799,5.10728481 C1.42602316,4.88130682 2.91001367,5.01226911 3.75580581,5.50063756 L36.6596556,24.4996343 C37.8153661,25.1669525 38.9904123,27.2016073 38.9904123,28.5370376 L38.9904123,39.7053207 L43.4211487,43.6610343 L46.9900017,43.6610343 Z"/>
        <g transform="translate(31 35)">
          <path fill="#3B4045" d="M12,24.7448896 C18.627417,21.1077555 24,13.0128384 24,6.66438617 C24,0.315933948 18.627417,-1.88202368 12,1.75511041 C5.372583,5.39224449 0,13.4871616 0,19.8356138 C0,26.1840661 5.372583,28.3820237 12,24.7448896 Z"/>
          <path fill="#E0E0E0" d="M13,21.8078495 C17.418278,19.3373434 21,13.8389091 21,9.52675287 C21,5.21459664 17.418278,3.72164429 13,6.19215047 C8.581722,8.66265664 5,14.1610909 5,18.4732471 C5,22.7854034 8.581722,24.2783557 13,21.8078495 Z"/>
          <path fill="#3B4045" d="M12.5,19.0727719 C16.0898509,17.1512671 19,12.8747071 19,9.52080779 C19,6.1669085 16.0898509,5.00572334 12.5,6.92722814 C8.91014913,8.84873294 6,13.1252929 6,16.4791922 C6,19.8330915 8.91014913,20.9942767 12.5,19.0727719 Z" transform="rotate(-2 12.5 13)"/>
        </g>
      </g>
    </g>
  </g>
</svg>
